<?xml version="1.0" encoding="UTF-8" standalone="no"?>
<svg
   width="244.44589"
   height="59.321011"
   viewBox="0 0 64.676309 15.69535"
   version="1.1"
   id="svg1"
   xmlns="http://www.w3.org/2000/svg"
   xmlns:svg="http://www.w3.org/2000/svg">
  <defs
     id="defs1" />
  <g
     id="layer1"
     transform="translate(-0.73476017,-1.412741)">
    <g
       id="g38"
       transform="matrix(0.26458333,0,0,0.26458333,-60.048171,-0.6243064)">
      <g
         id="g1"
         transform="matrix(1.958024,0,0,1.958024,-220.06126,-2.6370973)">
        <g
           id="g2"
           transform="matrix(1.3489627,0,0,1.3489627,11.81,-2.2163823)"
           style="stroke-width:1.00024;stroke-dasharray:none">
          <path
             fill="#2297F3"
             opacity="1"
             stroke="none"
             d="m 172.47311,11.814087 c -0.29344,-0.169496 -0.57477,-0.331787 -0.84956,-0.490309 -0.001,-0.06546 0.0466,-0.06935 0.0739,-0.09146 0.0246,-0.01993 0.0543,-0.03354 0.0817,-0.05003 0.55319,-0.33305 1.10639,-0.666076 1.65954,-0.999178 0.89818,-0.540862 1.79631,-1.0818115 2.69455,-1.6225658 0.0545,-0.03282 0.10989,-0.064219 0.17429,-0.1017708 1.55959,0.90044 3.11981,1.8012366 4.66576,2.6937986 0.0121,0.0227 0.0154,0.02808 0.0179,0.03382 0.002,0.0058 0.006,0.01202 0.006,0.01805 0.001,1.777885 0.002,3.55577 0.004,5.333654 8e-5,0.05095 0,0.101909 0,0.148015 -0.0571,0.03899 -0.0923,-0.0022 -0.12787,-0.0225 -0.37168,-0.212869 -0.74228,-0.427635 -1.11322,-0.641797 -1.63319,-0.942933 -3.26644,-1.885786 -4.8996,-2.828781 -0.79167,-0.457117 -1.5832,-0.91448 -2.38689,-1.378943 z"
             id="path2"
             style="fill:#912ec8;fill-opacity:1;stroke-width:1.00024;stroke-dasharray:none" />
          <path
             fill="#90CAF8"
             opacity="1"
             stroke="none"
             d="m 168.9935,23.438144 c -0.31316,0.188155 -0.61361,0.370347 -0.91463,0.551599 -0.55278,0.332843 -1.10588,0.665136 -1.65888,0.99762 -0.0164,0.0099 -0.0339,0.01827 -0.0495,0.0292 -0.10931,0.07624 -0.21845,0.106791 -0.32812,8.36e-4 -0.57534,-0.332395 -1.15023,-0.665574 -1.72616,-0.996937 -0.47077,-0.27085 -0.94321,-0.538783 -1.41413,-0.809389 -0.40436,-0.232365 -0.80784,-0.466282 -1.21105,-0.700654 -0.0492,-0.0286 -0.0943,-0.06429 -0.13308,-0.09104 -0.008,-0.01613 -0.011,-0.02171 -0.013,-0.02775 -0.002,-0.006 -0.004,-0.01247 -0.004,-0.01874 -0.001,-1.791313 -0.002,-3.582623 -0.004,-5.373936 0,-0.03197 0.001,-0.06394 0.002,-0.0959 1.3e-4,-0.0064 5.2e-4,-0.01289 0.002,-0.01906 0.002,-0.0061 0.004,-0.0122 0.007,-0.01778 0.003,-0.0053 0.007,-0.0098 0.0113,-0.01607 0.0563,-0.0214 0.097,0.01892 0.13887,0.0427 0.18332,0.104106 0.36457,0.211856 0.54644,0.318505 0.34168,0.200372 0.68328,0.400904 1.02493,0.601361 0.30307,0.177825 0.60628,0.355424 0.9092,0.53353 0.34694,0.203998 0.69394,0.407897 1.04033,0.612838 0.39036,0.230958 0.77905,0.464779 1.17041,0.694036 0.2922,0.171171 0.58813,0.335955 0.88126,0.505548 0.61935,0.358331 1.23747,0.7188 1.85706,1.076736 0.38175,0.220539 0.76524,0.438074 1.14802,0.65685 0.18859,0.107795 0.37756,0.214949 0.5657,0.323538 0.0207,0.01193 0.037,0.03145 0.0571,0.04904 -0.0155,0.02076 -0.0235,0.04105 -0.0384,0.05002 -0.61802,0.372924 -1.23665,0.744833 -1.86765,1.123259 z"
             id="path3"
             style="fill:#912ec8;fill-opacity:1;stroke-width:1.00024;stroke-dasharray:none" />
          <path
             fill="#43A5F6"
             opacity="1"
             stroke="none"
             d="m 177.87422,24.216283 c -0.55553,0.319215 -1.09885,0.631451 -1.64264,0.942862 -0.009,0.0053 -0.0242,7.17e-4 -0.036,7.17e-4 -0.0364,-0.01955 -0.0284,-0.05441 -0.0299,-0.08419 -0.002,-0.04468 -0.001,-0.08955 -0.001,-0.134341 -3.4e-4,-1.695639 -0.002,-3.39128 -5.1e-4,-5.086915 0.002,-1.765819 0.007,-3.531633 0.0109,-5.297449 1.3e-4,-0.05664 0,-0.113285 0,-0.16171 0.0714,-0.04163 0.11222,0.0018 0.15379,0.0255 0.25559,0.145722 0.50956,0.294266 0.76433,0.441454 1.0633,0.614344 2.12673,1.228462 3.19001,1.842855 0.20489,0.118393 0.40947,0.237367 0.61376,0.356799 0.0327,0.0191 0.0631,0.04205 0.1048,0.07014 0,0.05434 -1e-5,0.111309 -1e-5,0.168273 0,1.638051 9e-5,3.276104 -1.3e-4,4.914155 0,0.208592 0.0171,0.187232 -0.1737,0.297263 -0.98065,0.565619 -1.96105,1.131671 -2.95371,1.704632 z"
             id="path4-2"
             style="fill:#912ec8;fill-opacity:1;stroke-width:1.00024;stroke-dasharray:none" />
          <path
             fill="#1E89E4"
             opacity="1"
             stroke="none"
             d="m 167.94954,7.4587503 c 1.10846,-0.6396653 2.20465,-1.2724976 3.29581,-1.9024346 0.1648,0.068862 4.56121,2.60673 4.69408,2.7097146 -0.0315,0.060086 -0.0954,0.080152 -0.14732,0.1115675 -0.54697,0.3312316 -1.09496,0.6607782 -1.64266,0.9908153 -1.0461,0.6303709 -2.0896,1.2651119 -3.13923,1.8895479 -0.65388,0.388999 -1.317,0.762469 -1.97601,1.142847 -0.72548,0.418741 -1.45094,0.8375 -2.17659,1.255916 -0.0481,0.02775 -0.0924,0.06757 -0.16756,0.06423 -0.002,-0.06758 -0.007,-0.129426 -0.007,-0.191283 -0.002,-0.492553 -0.002,-0.985114 -0.005,-1.477662 -0.006,-1.208847 -0.014,-2.4176903 -0.021,-3.6265347 -3.5e-4,-0.070053 -9e-5,-0.1401085 -9e-5,-0.2191905 0.42883,-0.2481374 0.85445,-0.4944171 1.29234,-0.7475315 z"
             id="path5-8"
             style="fill:#912ec8;fill-opacity:1;stroke-width:1.00024;stroke-dasharray:none" />
          <path
             fill="#65B5F6"
             opacity="1"
             stroke="none"
             d="m 174.09847,20.825599 c 0.56092,-0.32224 1.10928,-0.638158 1.65811,-0.953247 0.009,-0.0054 0.0245,-6.56e-4 0.0374,-6.56e-4 0.0381,0.01571 0.0321,0.05091 0.0333,0.08099 0.002,0.0511 0.001,0.102337 0.001,0.153516 0,1.682524 0,3.365046 0,5.04757 0,0.0762 0,0.15241 0,0.234141 -0.0536,0.035 -0.0997,0.06837 -0.14872,0.09675 -0.89647,0.518743 -1.79313,1.037137 -2.69007,1.555062 -0.5149,0.29732 -1.02953,0.595121 -1.54599,0.889727 -0.19632,0.111989 -0.16406,0.116434 -0.3635,0.0016 -0.67576,-0.389524 -1.3495,-0.78254 -2.02489,-1.172702 -0.70863,-0.409369 -1.41826,-0.816987 -2.12746,-1.225368 -0.0942,-0.05424 -0.18886,-0.107697 -0.28229,-0.163221 -0.026,-0.01543 -0.0483,-0.037 -0.0694,-0.05346 0.005,-0.01648 0.007,-0.02254 0.01,-0.02782 0.003,-0.0056 0.007,-0.01099 0.0111,-0.01529 0.009,-0.0088 0.0188,-0.01745 0.0291,-0.02493 0.0155,-0.01127 0.0314,-0.02219 0.0478,-0.03205 1.546,-0.927607 3.08889,-1.860453 4.63932,-2.780582 0.91813,-0.544878 1.84819,-1.069658 2.7854,-1.609874 z"
             id="path6-5"
             style="fill:#912ec8;fill-opacity:1;stroke-width:1.00024;stroke-dasharray:none" />
          <path
             fill="#BBDEFA"
             opacity="1"
             stroke="none"
             d="m 164.59086,9.3969061 c 0.24435,-0.1410902 0.4766,-0.274954 0.70909,-0.4083822 0.20485,-0.1175625 0.40995,-0.2346714 0.61499,-0.3519021 0.0942,-0.053866 0.18798,-0.1085262 0.28313,-0.1606735 0.0269,-0.01471 0.0579,-0.02181 0.0917,-0.034124 0.0331,0.1519766 0.0518,0.2946765 0.0517,0.4420089 -6e-4,3.3588708 3.5e-4,6.7177408 0.001,10.0766108 0,0.07558 -0.002,0.151161 -0.003,0.241546 -0.0391,-0.01014 -0.0644,-0.01116 -0.0836,-0.02248 -0.51674,-0.304736 -1.03189,-0.612211 -1.54942,-0.915613 -0.42398,-0.248556 -0.85191,-0.490367 -1.27581,-0.739067 -0.37976,-0.222808 -0.75565,-0.452202 -1.13473,-0.676189 -0.19784,-0.116896 -0.39896,-0.228231 -0.59836,-0.342493 -0.0331,-0.019 -0.0666,-0.03812 -0.0972,-0.0608 -0.0377,-0.02791 -0.059,-0.06639 -0.0589,-0.114931 9e-5,-0.04478 -6e-4,-0.08956 -6e-4,-0.134342 -9e-5,-1.60586 -9e-5,-3.211721 -9e-5,-4.817582 0,-0.03199 0.003,-0.06433 -5.1e-4,-0.0959 -0.0112,-0.09733 0.038,-0.148333 0.11984,-0.194209 0.31172,-0.174738 0.61893,-0.357506 0.92869,-0.535755 0.28771,-0.165551 0.57673,-0.328815 0.86478,-0.493764 0.16617,-0.095156 0.3313,-0.1921229 0.49739,-0.287421 0.18824,-0.1080062 0.37715,-0.2148349 0.5654,-0.3228242 0.0221,-0.012666 0.0418,-0.029432 0.0746,-0.051712 z"
             id="path7-9"
             style="fill:#912ec8;fill-opacity:1;stroke-width:1.00024;stroke-dasharray:none" />
          <path
             fill="#43A5F6"
             opacity="1"
             stroke="none"
             d="m 174.47705,14.871641 c 0.0102,0.01507 0.0275,0.02934 0.0292,0.04536 0.005,0.04424 0.004,0.08921 0.004,0.133899 1.8e-4,1.112613 9e-5,2.225225 9e-5,3.337839 0,0.05093 0,0.101868 0,0.160035 -0.0498,0.03265 -0.0958,0.06617 -0.14487,0.09453 -1.01817,0.588597 -2.03666,1.176653 -3.0553,1.764455 -0.0219,0.01264 -0.0462,0.02106 -0.0832,0.0139 -0.0143,-1.285041 -0.0149,-2.552537 -0.003,-3.825526 0.2603,-0.136159 0.50833,-0.267047 0.75662,-0.397427 0.27088,-0.142244 0.54151,-0.284989 0.81316,-0.425774 0.43026,-0.222996 0.86234,-0.442525 1.29136,-0.667889 0.13434,-0.07057 0.2613,-0.155201 0.39164,-0.233395 z"
             id="path8-4"
             style="fill:#912ec8;fill-opacity:1;stroke-width:1.00024;stroke-dasharray:none" />
          <path
             fill="#BBDEFA"
             opacity="1"
             stroke="none"
             d="m 171.3049,16.601619 c 5.2e-4,1.267497 0.001,2.534994 0.002,3.820307 -0.12556,-0.01345 -0.22728,-0.09368 -0.33813,-0.153833 -0.22429,-0.121698 -0.44232,-0.254928 -0.66298,-0.383296 -0.18208,-0.10592 -0.36413,-0.211882 -0.5464,-0.317467 -0.22092,-0.127978 -0.44187,-0.255894 -0.66314,-0.383259 -0.19917,-0.114651 -0.39904,-0.228102 -0.59813,-0.342891 -0.13269,-0.07651 -0.26259,-0.158145 -0.39762,-0.230242 -0.0722,-0.03857 -0.10277,-0.08999 -0.097,-0.169096 0.003,-0.03818 3.5e-4,-0.07674 3.5e-4,-0.115133 0,-1.062087 -3.5e-4,-2.124176 6e-4,-3.186263 8e-5,-0.06941 0.0106,-0.138819 0.0423,-0.218006 0.17845,0.06938 0.33102,0.14819 0.48319,0.227766 0.92499,0.483706 1.84989,0.967588 2.77482,1.451413 z"
             id="path9-3"
             style="fill:#912ec8;fill-opacity:1;stroke-width:1.00024;stroke-dasharray:none" />
        </g>
        <path
           d="m 280.49254,28.675576 q -0.70639,0.308242 -1.28434,0.577953 -0.56511,0.269712 -1.48984,0.56511 -0.78345,0.244025 -1.70817,0.410989 -0.91188,0.179808 -2.01642,0.179808 -2.08063,0 -3.7888,-0.577953 -1.69533,-0.590797 -2.95399,-1.836608 -1.23296,-1.220124 -1.92651,-3.095261 -0.69354,-1.887981 -0.69354,-4.379603 0,-2.363187 0.66786,-4.225481 0.66785,-1.862294 1.92651,-3.146635 1.22012,-1.245811 2.94114,-1.900825 1.73386,-0.655013 3.84018,-0.655013 1.54121,0 3.06957,0.372458 1.54121,0.372459 3.41635,1.310028 v 3.018201 h -0.19265 q -1.57974,-1.322871 -3.1338,-1.926511 -1.55405,-0.60364 -3.32644,-0.60364 -1.4513,0 -2.62005,0.475206 -1.15591,0.462362 -2.06779,1.451305 -0.8862,0.963256 -1.38709,2.440248 -0.48805,1.464148 -0.48805,3.390659 0,2.016416 0.53942,3.467721 0.55227,1.451305 1.41278,2.363187 0.89904,0.950412 2.09347,1.412775 1.20728,0.449519 2.543,0.449519 1.83661,0 3.44203,-0.629327 1.60543,-0.629327 3.00536,-1.887981 h 0.17981 z m 15.63043,-5.779534 q 0,3.506251 -1.79808,5.535509 -1.79808,2.029259 -4.81628,2.029259 -3.04389,0 -4.84197,-2.029259 -1.78523,-2.029258 -1.78523,-5.535509 0,-3.506251 1.78523,-5.535509 1.79808,-2.042102 4.84197,-2.042102 3.0182,0 4.81628,2.042102 1.79808,2.029258 1.79808,5.535509 z m -2.49163,0 q 0,-2.78702 -1.09169,-4.135578 -1.09169,-1.361401 -3.03104,-1.361401 -1.96504,0 -3.05673,1.361401 -1.07885,1.348558 -1.07885,4.135578 0,2.697116 1.09169,4.097047 1.09169,1.387089 3.04389,1.387089 1.92651,0 3.0182,-1.374245 1.10453,-1.387088 1.10453,-4.109891 z m 17.86518,7.166622 h -2.41456 v -1.502679 q -1.04031,0.899039 -2.17053,1.399932 -1.13022,0.500893 -2.45309,0.500893 -2.56869,0 -4.08421,-1.977885 -1.50268,-1.977885 -1.50268,-5.484136 0,-1.823764 0.51374,-3.249382 0.52658,-1.425618 1.41277,-2.427404 0.87336,-0.976099 2.02926,-1.489836 1.16875,-0.513736 2.41456,-0.513736 1.13022,0 2.00358,0.244025 0.87335,0.231181 1.8366,0.732074 v -6.21621 h 2.41456 z m -2.41456,-3.531937 v -8.232625 q -0.9761,-0.436676 -1.7467,-0.60364 -0.77061,-0.166965 -1.68249,-0.166965 -2.02926,0 -3.15948,1.412775 -1.13022,1.412775 -1.13022,4.007144 0,2.555838 0.87336,3.891552 0.87335,1.322872 2.79986,1.322872 1.02747,0 2.08063,-0.44952 1.05316,-0.462362 1.96504,-1.181593 z m 19.17521,-3.39066 h -10.57012 q 0,1.322871 0.39814,2.311813 0.39815,0.976099 1.09169,1.605426 0.66786,0.616484 1.57974,0.924726 0.92473,0.308242 2.02926,0.308242 1.46415,0 2.94114,-0.577954 1.48984,-0.590797 2.11916,-1.155907 h 0.12844 v 2.632899 q -1.22012,0.513737 -2.49162,0.860509 -1.2715,0.346772 -2.67143,0.346772 -3.57047,0 -5.57404,-1.926512 -2.00357,-1.939354 -2.00357,-5.496979 0,-3.519093 1.91367,-5.586882 1.92651,-2.067789 5.0603,-2.067789 2.90261,0 4.4695,1.69533 1.57974,1.69533 1.57974,4.816278 z m -2.35034,-1.849451 q -0.0128,-1.900825 -0.96326,-2.941141 -0.93756,-1.040316 -2.86408,-1.040316 -1.93935,0 -3.09526,1.143064 -1.14306,1.143063 -1.29718,2.838393 z m 13.45989,8.643614 q -0.6807,0.179808 -1.48983,0.295398 -0.79629,0.115591 -1.42562,0.115591 -2.19622,0 -3.33929,-1.181594 -1.14306,-1.181593 -1.14306,-3.788805 v -7.628985 h -1.63111 v -2.029258 h 1.63111 v -4.122735 h 2.41456 v 4.122735 h 4.98324 v 2.029258 h -4.98324 v 6.537295 q 0,1.13022 0.0514,1.772391 0.0514,0.629327 0.35961,1.181593 0.28256,0.513736 0.77061,0.757761 0.50089,0.231182 1.51552,0.231182 0.59079,0 1.23296,-0.166965 0.64218,-0.179807 0.92473,-0.295398 h 0.12843 z m 15.19376,-14.217653 -8.3739,19.637571 h -2.58153 l 2.67143,-5.985028 -5.71532,-13.652543 h 2.62006 l 4.40529,10.634342 4.44382,-10.634342 z"
           id="text1"
           style="fill:#912ec8;fill-opacity:1;stroke-width:0.246593"
           aria-label="Codety" />
      </g>
    </g>
  </g>
</svg>
